<svg xmlns="http://www.w3.org/2000/svg" width="25" height="125" viewBox="0 0 25 125" fill="none"><path d="M1.09375 98.0625C1.11458 98.0625 1.16667 98.0729 1.25 98.0937C1.33333 98.0937 1.39583 98.1042 1.4375 98.125L1.4375 98.875C1.4375 99.1042 1.53125 99.3125 1.71875 99.5C1.88542 99.6667 2.19792 99.8229 2.65625 99.9687C3.09375 100.094 3.70833 100.187 4.5 100.25C5.29167 100.312 6.30208 100.344 7.53125 100.344L21 99.9375C21.6458 99.9167 22.1771 99.8542 22.5937 99.75C22.9896 99.6458 23.3021 99.5104 23.5312 99.3437C23.7604 99.1562 23.9167 98.9479 24 98.7187C24.0833 98.4896 24.125 98.2292 24.125 97.9375L24.125 97.5312L24.3125 97.4687L24.4687 97.4687C24.4896 97.4687 24.5 97.4583 24.5 97.4375L24.5 99.8437L24.5 102.75L24.5 105.375C24.4792 105.375 24.4271 105.365 24.3437 105.344C24.2396 105.302 24.1667 105.271 24.125 105.25L24.125 104.875C24.125 104.562 24.0833 104.281 24 104.031C23.9167 103.781 23.7604 103.562 23.5312 103.375C23.3021 103.187 22.9896 103.052 22.5937 102.969C22.1771 102.865 21.6458 102.823 21 102.844L3.6875 103.281L24.5 110.875L24.5 111.594C21.1458 112.99 17.8229 114.385 14.5312 115.781C11.2396 117.177 7.91667 118.573 4.5625 119.969L4.28125 120.062L18.3437 120.312L18.3437 120.281C19.5312 120.323 20.5 120.302 21.25 120.219C22 120.135 22.5937 120 23.0312 119.812C23.4479 119.625 23.7396 119.406 23.9062 119.156C24.0521 118.885 24.125 118.583 24.125 118.25L24.125 117.531C24.1667 117.531 24.2292 117.521 24.3125 117.5C24.3958 117.479 24.4479 117.469 24.4687 117.469L24.4687 120.406L24.4687 121.406L24.4687 124.344C24.4479 124.344 24.3958 124.344 24.3125 124.344C24.2292 124.323 24.1667 124.302 24.125 124.281L24.125 123.562C24.125 123.25 24.0417 122.958 23.875 122.687C23.7083 122.417 23.3958 122.177 22.9375 121.969C22.4583 121.76 21.8229 121.594 21.0312 121.469C20.2187 121.344 19.1667 121.26 17.875 121.219L2.90625 120.781C2.32292 121.156 1.9375 121.521 1.75 121.875C1.54167 122.229 1.4375 122.583 1.4375 122.937L1.4375 123.687L1.375 123.687C1.35417 123.687 1.34375 123.698 1.34375 123.719C1.32292 123.719 1.29167 123.719 1.25 123.719C1.20833 123.719 1.1875 123.729 1.1875 123.75C1.16667 123.75 1.14583 123.75 1.125 123.75L1.0625 123.75L1.0625 121.406L1.0625 120.719L1.0625 120L1.0625 117.906L20.75 110.25L20.7812 110.25L1.0625 103.312L1.0625 102.281L1.0625 100.531L1.0625 98.0625L1.09375 98.0625ZM24.1562 84.1562C24.1562 82.8229 23.875 81.6042 23.3125 80.5C22.75 79.375 21.9687 78.4167 20.9687 77.625C19.9687 76.8125 18.7708 76.1875 17.375 75.75C15.9792 75.2917 14.4479 75.0625 12.7812 75.0625C11.1146 75.0625 9.58333 75.2917 8.1875 75.75C6.79166 76.1875 5.59375 76.8021 4.59375 77.5937C3.59375 78.3854 2.8125 79.3333 2.25 80.4375C1.6875 81.5417 1.40625 82.75 1.40625 84.0625C1.40625 85.3125 1.6875 86.4583 2.25 87.5C2.8125 88.5208 3.59375 89.4062 4.59375 90.1562C5.59375 90.9062 6.79167 91.4896 8.1875 91.9062C9.58333 92.3229 11.1146 92.5312 12.7812 92.5312C14.4479 92.5312 15.9792 92.3229 17.375 91.9062C18.7708 91.4896 19.9687 90.9167 20.9687 90.1875C21.9687 89.4375 22.75 88.5521 23.3125 87.5312C23.875 86.5104 24.1562 85.3854 24.1562 84.1562ZM12.7812 95.75C11.0312 95.75 9.41667 95.4583 7.9375 94.875C6.45833 94.2917 5.1875 93.4792 4.125 92.4375C3.0625 91.3958 2.23958 90.1562 1.65625 88.7187C1.05208 87.2812 0.749998 85.6979 0.749998 83.9687C0.749998 82.1979 1.05208 80.5729 1.65625 79.0937C2.23958 77.6146 3.0625 76.3437 4.125 75.2812C5.1875 74.1979 6.45833 73.3646 7.9375 72.7812C9.41666 72.1771 11.0312 71.875 12.7812 71.875C14.5312 71.875 16.1458 72.1875 17.625 72.8125C19.1042 73.4167 20.375 74.2708 21.4375 75.375C22.5 76.4583 23.3333 77.7604 23.9375 79.2812C24.5208 80.8021 24.8125 82.4687 24.8125 84.2812C24.8125 85.9687 24.5208 87.5104 23.9375 88.9062C23.3333 90.3021 22.5 91.5104 21.4375 92.5312C20.375 93.5521 19.1042 94.3437 17.625 94.9062C16.1458 95.4687 14.5312 95.75 12.7812 95.75ZM24.1562 57C24.1562 55.6667 23.875 54.4479 23.3125 53.3437C22.75 52.2187 21.9687 51.2604 20.9687 50.4687C19.9687 49.6562 18.7708 49.0312 17.375 48.5937C15.9792 48.1354 14.4479 47.9062 12.7812 47.9062C11.1146 47.9062 9.58333 48.1354 8.1875 48.5937C6.79166 49.0312 5.59375 49.6458 4.59375 50.4375C3.59375 51.2292 2.8125 52.1771 2.25 53.2812C1.6875 54.3854 1.40625 55.5937 1.40625 56.9062C1.40625 58.1562 1.6875 59.3021 2.25 60.3437C2.8125 61.3646 3.59375 62.25 4.59375 63C5.59375 63.75 6.79166 64.3333 8.1875 64.75C9.58333 65.1667 11.1146 65.375 12.7812 65.375C14.4479 65.375 15.9792 65.1667 17.375 64.75C18.7708 64.3333 19.9687 63.7604 20.9687 63.0312C21.9687 62.2812 22.75 61.3958 23.3125 60.375C23.875 59.3542 24.1562 58.2292 24.1562 57ZM12.7812 68.5937C11.0312 68.5937 9.41666 68.3021 7.9375 67.7187C6.45833 67.1354 5.1875 66.3229 4.125 65.2812C3.0625 64.2396 2.23958 63 1.65625 61.5625C1.05208 60.125 0.749997 58.5417 0.749997 56.8125C0.749997 55.0417 1.05208 53.4167 1.65625 51.9375C2.23958 50.4583 3.0625 49.1875 4.125 48.125C5.1875 47.0417 6.45833 46.2083 7.9375 45.625C9.41666 45.0208 11.0312 44.7187 12.7812 44.7187C14.5312 44.7187 16.1458 45.0312 17.625 45.6562C19.1042 46.2604 20.375 47.1146 21.4375 48.2187C22.5 49.3021 23.3333 50.6042 23.9375 52.125C24.5208 53.6458 24.8125 55.3125 24.8125 57.125C24.8125 58.8125 24.5208 60.3542 23.9375 61.75C23.3333 63.1458 22.5 64.3542 21.4375 65.375C20.375 66.3958 19.1042 67.1875 17.625 67.75C16.1458 68.3125 14.5312 68.5937 12.7812 68.5937ZM24.5 19.1562C24.5 20.5521 24.4792 21.6562 24.4375 22.4687C24.3958 23.2812 24.3021 23.9375 24.1562 24.4375C24.0104 24.9167 23.7917 25.3125 23.5 25.625C23.1875 25.9167 22.7708 26.2292 22.25 26.5625C21.1667 27.2708 20.1458 27.9271 19.1875 28.5312C18.2292 29.1354 17.3646 29.6875 16.5937 30.1875C15.8229 30.6667 15.1667 31.0729 14.625 31.4062C14.0625 31.7396 13.6354 31.9792 13.3437 32.125L13.3437 36.0625L21 36.0625C21.6458 36.0625 22.1771 36.0104 22.5937 35.9062C22.9896 35.8021 23.3021 35.6667 23.5312 35.5C23.7604 35.3125 23.9167 35.1042 24 34.875C24.0833 34.625 24.125 34.3542 24.125 34.0625L24.125 33.6562L24.3125 33.5937L24.4687 33.5937C24.4896 33.5937 24.5 33.5833 24.5 33.5625L24.5 41.5L24.4687 41.5C24.4479 41.5 24.4271 41.5 24.4062 41.5C24.3854 41.4792 24.3542 41.4687 24.3125 41.4687L24.125 41.4062L24.125 41C24.125 40.7083 24.0833 40.4479 24 40.2187C23.9167 39.9687 23.7604 39.7604 23.5312 39.5937C23.3021 39.4062 22.9896 39.2604 22.5937 39.1562C22.1771 39.0521 21.6458 39 21 39L4.5625 39C3.91666 39 3.39583 39.0521 3 39.1562C2.58333 39.2604 2.26041 39.4062 2.03125 39.5937C1.80208 39.7604 1.64583 39.9687 1.5625 40.2187C1.47916 40.4479 1.4375 40.7083 1.4375 41L1.4375 41.4062L1.25 41.4687C1.20833 41.4687 1.1875 41.4792 1.1875 41.5C1.16666 41.5 1.14583 41.5 1.125 41.5L1.0625 41.5L1.0625 36.0625L1.0625 31.9687C1.0625 30.7812 1.22916 29.6979 1.5625 28.7187C1.875 27.7396 2.33333 26.8958 2.9375 26.1875C3.52083 25.4583 4.21875 24.8958 5.03125 24.5C5.84375 24.1042 6.72916 23.9062 7.6875 23.9062C9.1875 23.9062 10.3854 24.3854 11.2812 25.3437C12.1771 26.2812 12.7812 27.5521 13.0937 29.1562C13.4271 28.9479 13.8854 28.6562 14.4687 28.2812C15.0521 27.8854 15.7396 27.4271 16.5312 26.9062C17.3021 26.3854 18.1771 25.8125 19.1562 25.1875C20.1146 24.5625 21.1458 23.8854 22.25 23.1562C22.6875 22.8646 23.0417 22.6146 23.3125 22.4062C23.5625 22.1979 23.75 21.9583 23.875 21.6875C24 21.4167 24.0833 21.0937 24.125 20.7187C24.1458 20.3229 24.1562 19.8021 24.1562 19.1562L24.5 19.1562ZM4.5625 36.0625L12.625 36.0625L12.625 31.9687C12.625 31.2604 12.5104 30.6146 12.2812 30.0312C12.0521 29.4271 11.7083 28.9167 11.25 28.5C10.7917 28.0625 10.2187 27.7292 9.53125 27.5C8.84375 27.25 8.03125 27.125 7.09375 27.125C6.30208 27.125 5.57291 27.2708 4.90625 27.5625C4.23958 27.8333 3.66666 28.2292 3.1875 28.75C2.70833 29.25 2.33333 29.8542 2.0625 30.5625C1.79166 31.25 1.65625 32.0104 1.65625 32.8437L1.65625 36.0625L4.5625 36.0625ZM4.59374 1.25C4.59374 1.27083 4.58333 1.33333 4.56249 1.4375C4.52083 1.52083 4.48958 1.58333 4.46874 1.625L4.18749 1.625C3.81249 1.66667 3.46874 1.72917 3.15624 1.8125C2.82291 1.875 2.54166 2.07292 2.31249 2.40625C2.08333 2.71875 1.90624 3.20833 1.78124 3.875C1.65624 4.52083 1.59374 5.4375 1.59374 6.625L1.59375 11.8125L4.5625 11.8125L12.1875 11.8125L12.1875 8.53125C12.1875 7.55208 12.125 6.75 12 6.125C11.8542 5.5 11.6562 5.01042 11.4062 4.65625C11.1562 4.30208 10.8646 4.0625 10.5312 3.9375C10.1771 3.79167 9.79166 3.71875 9.37499 3.71875L8.96874 3.71875L8.81249 3.375L12.1875 3.375L12.7812 3.375L16.1562 3.375C16.0521 3.60417 16 3.71875 16 3.71875L15.5937 3.71875C15.1979 3.71875 14.8333 3.79167 14.5 3.9375C14.1458 4.0625 13.8437 4.30208 13.5937 4.65625C13.3437 5.01042 13.1458 5.5 13 6.125C12.8542 6.75 12.7812 7.55208 12.7812 8.53125L12.7812 11.8125L21 11.8125L22 11.8125C22.2917 11.8125 22.5625 11.7917 22.8125 11.75C23.0417 11.6875 23.25 11.5729 23.4375 11.4062C23.6042 11.2187 23.7396 10.9583 23.8437 10.625C23.9271 10.2917 23.9687 9.85417 23.9687 9.3125L23.9687 5.8125C23.9687 4.83333 23.9062 4.02083 23.7812 3.375C23.6562 2.72917 23.4896 2.21875 23.2812 1.84375C23.0521 1.44792 22.7917 1.16667 22.5 0.999999C22.1875 0.812499 21.8542 0.697915 21.5 0.656249L21.0937 0.593749L20.9687 0.218749C21.5521 0.302082 22.1458 0.385415 22.75 0.468749C23.3542 0.552082 23.9375 0.645832 24.5 0.749999L24.5 5.90625L24.5 11.8437L24.5 14.7812L24.5 17.2812L24.4687 17.2812C24.4479 17.2812 24.4271 17.2812 24.4062 17.2812C24.3854 17.2604 24.3542 17.25 24.3125 17.25L24.125 17.1875L24.125 16.7812C24.125 16.4896 24.0833 16.2292 24 16C23.9167 15.75 23.7604 15.5417 23.5312 15.375C23.3021 15.1875 22.9896 15.0417 22.5937 14.9375C22.1771 14.8333 21.6458 14.7812 21 14.7812L4.5625 14.7812C3.91666 14.7812 3.39583 14.8333 3 14.9375C2.58333 15.0417 2.26041 15.1875 2.03125 15.375C1.80208 15.5417 1.64583 15.75 1.5625 16C1.47916 16.2292 1.4375 16.4896 1.4375 16.7812L1.4375 17.1875L1.25 17.25C1.20833 17.25 1.1875 17.2604 1.1875 17.2812C1.16666 17.2812 1.14583 17.2812 1.125 17.2812L1.0625 17.2812L1.0625 14.7812L1.0625 11.8437L1.06249 6.6875L1.06249 1.53125C1.64583 1.48958 2.23958 1.45833 2.84374 1.4375C3.42708 1.39583 4.01041 1.35417 4.59374 1.3125L4.59374 1.25Z" fill="#2F2F2F"></path></svg>