<svg xmlns="http://www.w3.org/2000/svg" width="125" height="25" viewBox="0 0 125 25" fill="none"><path d="M26.9375 0.59375C26.9375 0.614583 26.9271 0.666667 26.9062 0.75C26.9062 0.833333 26.8958 0.895833 26.875 0.9375H26.125C25.8958 0.9375 25.6875 1.03125 25.5 1.21875C25.3333 1.38542 25.1771 1.69792 25.0312 2.15625C24.9062 2.59375 24.8125 3.20833 24.75 4C24.6875 4.79167 24.6562 5.80208 24.6562 7.03125L25.0625 20.5C25.0833 21.1458 25.1458 21.6771 25.25 22.0938C25.3542 22.4896 25.4896 22.8021 25.6562 23.0312C25.8438 23.2604 26.0521 23.4167 26.2812 23.5C26.5104 23.5833 26.7708 23.625 27.0625 23.625H27.4688L27.5312 23.8125V23.9688C27.5312 23.9896 27.5417 24 27.5625 24H25.1562H22.25H19.625C19.625 23.9792 19.6354 23.9271 19.6562 23.8438C19.6979 23.7396 19.7292 23.6667 19.75 23.625H20.125C20.4375 23.625 20.7188 23.5833 20.9688 23.5C21.2188 23.4167 21.4375 23.2604 21.625 23.0312C21.8125 22.8021 21.9479 22.4896 22.0312 22.0938C22.1354 21.6771 22.1771 21.1458 22.1562 20.5L21.7188 3.1875L14.125 24H13.4062C12.0104 20.6458 10.6146 17.3229 9.21875 14.0312C7.82292 10.7396 6.42708 7.41667 5.03125 4.0625L4.9375 3.78125L4.6875 17.8438H4.71875C4.67708 19.0312 4.69792 20 4.78125 20.75C4.86458 21.5 5 22.0938 5.1875 22.5312C5.375 22.9479 5.59375 23.2396 5.84375 23.4062C6.11458 23.5521 6.41667 23.625 6.75 23.625H7.46875C7.46875 23.6667 7.47917 23.7292 7.5 23.8125C7.52083 23.8958 7.53125 23.9479 7.53125 23.9688H4.59375H3.59375H0.65625C0.65625 23.9479 0.65625 23.8958 0.65625 23.8125C0.677083 23.7292 0.697917 23.6667 0.71875 23.625H1.4375C1.75 23.625 2.04167 23.5417 2.3125 23.375C2.58333 23.2083 2.82292 22.8958 3.03125 22.4375C3.23958 21.9583 3.40625 21.3229 3.53125 20.5312C3.65625 19.7188 3.73958 18.6667 3.78125 17.375L4.21875 2.40625C3.84375 1.82292 3.47917 1.4375 3.125 1.25C2.77083 1.04167 2.41667 0.9375 2.0625 0.9375H1.3125V0.875C1.3125 0.854167 1.30208 0.84375 1.28125 0.84375C1.28125 0.822917 1.28125 0.791667 1.28125 0.75C1.28125 0.708333 1.27083 0.6875 1.25 0.6875C1.25 0.666667 1.25 0.645833 1.25 0.625V0.5625H3.59375H4.28125H5H7.09375L14.75 20.25V20.2812L21.6875 0.5625H22.7188H24.4688H26.9375V0.59375ZM40.8438 23.6562C42.1771 23.6562 43.3958 23.375 44.5 22.8125C45.625 22.25 46.5833 21.4688 47.375 20.4688C48.1875 19.4688 48.8125 18.2708 49.25 16.875C49.7083 15.4792 49.9375 13.9479 49.9375 12.2812C49.9375 10.6146 49.7083 9.08333 49.25 7.6875C48.8125 6.29167 48.1979 5.09375 47.4062 4.09375C46.6146 3.09375 45.6667 2.3125 44.5625 1.75C43.4583 1.1875 42.25 0.90625 40.9375 0.90625C39.6875 0.90625 38.5417 1.1875 37.5 1.75C36.4792 2.3125 35.5938 3.09375 34.8438 4.09375C34.0938 5.09375 33.5104 6.29167 33.0938 7.6875C32.6771 9.08333 32.4688 10.6146 32.4688 12.2812C32.4688 13.9479 32.6771 15.4792 33.0938 16.875C33.5104 18.2708 34.0833 19.4688 34.8125 20.4688C35.5625 21.4688 36.4479 22.25 37.4688 22.8125C38.4896 23.375 39.6146 23.6562 40.8438 23.6562ZM29.25 12.2812C29.25 10.5312 29.5417 8.91667 30.125 7.4375C30.7083 5.95833 31.5208 4.6875 32.5625 3.625C33.6042 2.5625 34.8438 1.73958 36.2812 1.15625C37.7188 0.552083 39.3021 0.25 41.0312 0.25C42.8021 0.25 44.4271 0.552083 45.9062 1.15625C47.3854 1.73958 48.6562 2.5625 49.7188 3.625C50.8021 4.6875 51.6354 5.95833 52.2188 7.4375C52.8229 8.91667 53.125 10.5312 53.125 12.2812C53.125 14.0312 52.8125 15.6458 52.1875 17.125C51.5833 18.6042 50.7292 19.875 49.625 20.9375C48.5417 22 47.2396 22.8333 45.7188 23.4375C44.1979 24.0208 42.5312 24.3125 40.7188 24.3125C39.0312 24.3125 37.4896 24.0208 36.0938 23.4375C34.6979 22.8333 33.4896 22 32.4688 20.9375C31.4479 19.875 30.6562 18.6042 30.0938 17.125C29.5312 15.6458 29.25 14.0312 29.25 12.2812ZM68 23.6562C69.3333 23.6562 70.5521 23.375 71.6562 22.8125C72.7812 22.25 73.7396 21.4688 74.5312 20.4688C75.3438 19.4688 75.9688 18.2708 76.4062 16.875C76.8646 15.4792 77.0938 13.9479 77.0938 12.2812C77.0938 10.6146 76.8646 9.08333 76.4062 7.6875C75.9688 6.29167 75.3542 5.09375 74.5625 4.09375C73.7708 3.09375 72.8229 2.3125 71.7188 1.75C70.6146 1.1875 69.4062 0.90625 68.0938 0.90625C66.8438 0.90625 65.6979 1.1875 64.6562 1.75C63.6354 2.3125 62.75 3.09375 62 4.09375C61.25 5.09375 60.6667 6.29167 60.25 7.6875C59.8333 9.08333 59.625 10.6146 59.625 12.2812C59.625 13.9479 59.8333 15.4792 60.25 16.875C60.6667 18.2708 61.2396 19.4688 61.9688 20.4688C62.7188 21.4688 63.6042 22.25 64.625 22.8125C65.6458 23.375 66.7708 23.6562 68 23.6562ZM56.4062 12.2812C56.4062 10.5312 56.6979 8.91667 57.2812 7.4375C57.8646 5.95833 58.6771 4.6875 59.7188 3.625C60.7604 2.5625 62 1.73958 63.4375 1.15625C64.875 0.552083 66.4583 0.25 68.1875 0.25C69.9583 0.25 71.5833 0.552083 73.0625 1.15625C74.5417 1.73958 75.8125 2.5625 76.875 3.625C77.9583 4.6875 78.7917 5.95833 79.375 7.4375C79.9792 8.91667 80.2812 10.5312 80.2812 12.2812C80.2812 14.0312 79.9688 15.6458 79.3438 17.125C78.7396 18.6042 77.8854 19.875 76.7812 20.9375C75.6979 22 74.3958 22.8333 72.875 23.4375C71.3542 24.0208 69.6875 24.3125 67.875 24.3125C66.1875 24.3125 64.6458 24.0208 63.25 23.4375C61.8542 22.8333 60.6458 22 59.625 20.9375C58.6042 19.875 57.8125 18.6042 57.25 17.125C56.6875 15.6458 56.4062 14.0312 56.4062 12.2812ZM105.844 24C104.448 24 103.344 23.9792 102.531 23.9375C101.719 23.8958 101.062 23.8021 100.562 23.6562C100.083 23.5104 99.6875 23.2917 99.375 23C99.0833 22.6875 98.7708 22.2708 98.4375 21.75C97.7292 20.6667 97.0729 19.6458 96.4688 18.6875C95.8646 17.7292 95.3125 16.8646 94.8125 16.0938C94.3333 15.3229 93.9271 14.6667 93.5938 14.125C93.2604 13.5625 93.0208 13.1354 92.875 12.8438H88.9375V20.5C88.9375 21.1458 88.9896 21.6771 89.0938 22.0938C89.1979 22.4896 89.3333 22.8021 89.5 23.0312C89.6875 23.2604 89.8958 23.4167 90.125 23.5C90.375 23.5833 90.6458 23.625 90.9375 23.625H91.3438L91.4062 23.8125V23.9688C91.4062 23.9896 91.4167 24 91.4375 24H83.5V23.9688C83.5 23.9479 83.5 23.9271 83.5 23.9062C83.5208 23.8854 83.5312 23.8542 83.5312 23.8125L83.5938 23.625H84C84.2917 23.625 84.5521 23.5833 84.7812 23.5C85.0312 23.4167 85.2396 23.2604 85.4062 23.0312C85.5938 22.8021 85.7396 22.4896 85.8438 22.0938C85.9479 21.6771 86 21.1458 86 20.5V4.0625C86 3.41667 85.9479 2.89583 85.8438 2.5C85.7396 2.08333 85.5938 1.76042 85.4062 1.53125C85.2396 1.30208 85.0312 1.14583 84.7812 1.0625C84.5521 0.979167 84.2917 0.9375 84 0.9375H83.5938L83.5312 0.75C83.5312 0.708333 83.5208 0.6875 83.5 0.6875C83.5 0.666667 83.5 0.645833 83.5 0.625V0.5625H88.9375H93.0312C94.2188 0.5625 95.3021 0.729167 96.2812 1.0625C97.2604 1.375 98.1042 1.83333 98.8125 2.4375C99.5417 3.02083 100.104 3.71875 100.5 4.53125C100.896 5.34375 101.094 6.22917 101.094 7.1875C101.094 8.6875 100.615 9.88542 99.6562 10.7812C98.7188 11.6771 97.4479 12.2812 95.8438 12.5938C96.0521 12.9271 96.3438 13.3854 96.7188 13.9688C97.1146 14.5521 97.5729 15.2396 98.0938 16.0312C98.6146 16.8021 99.1875 17.6771 99.8125 18.6562C100.438 19.6146 101.115 20.6458 101.844 21.75C102.135 22.1875 102.385 22.5417 102.594 22.8125C102.802 23.0625 103.042 23.25 103.312 23.375C103.583 23.5 103.906 23.5833 104.281 23.625C104.677 23.6458 105.198 23.6562 105.844 23.6562V24ZM88.9375 4.0625V12.125H93.0312C93.7396 12.125 94.3854 12.0104 94.9688 11.7812C95.5729 11.5521 96.0833 11.2083 96.5 10.75C96.9375 10.2917 97.2708 9.71875 97.5 9.03125C97.75 8.34375 97.875 7.53125 97.875 6.59375C97.875 5.80208 97.7292 5.07292 97.4375 4.40625C97.1667 3.73958 96.7708 3.16667 96.25 2.6875C95.75 2.20833 95.1458 1.83333 94.4375 1.5625C93.75 1.29167 92.9896 1.15625 92.1562 1.15625H88.9375V4.0625ZM123.75 4.09375C123.729 4.09375 123.667 4.08333 123.562 4.0625C123.479 4.02083 123.417 3.98958 123.375 3.96875V3.6875C123.333 3.3125 123.271 2.96875 123.188 2.65625C123.125 2.32292 122.927 2.04167 122.594 1.8125C122.281 1.58333 121.792 1.40625 121.125 1.28125C120.479 1.15625 119.562 1.09375 118.375 1.09375H113.188V4.0625V11.6875H116.469C117.448 11.6875 118.25 11.625 118.875 11.5C119.5 11.3542 119.99 11.1562 120.344 10.9062C120.698 10.6562 120.938 10.3646 121.062 10.0312C121.208 9.67708 121.281 9.29167 121.281 8.875V8.46875L121.625 8.3125V11.6875V12.2812V15.6562C121.396 15.5521 121.281 15.5 121.281 15.5V15.0938C121.281 14.6979 121.208 14.3333 121.062 14C120.938 13.6458 120.698 13.3438 120.344 13.0938C119.99 12.8438 119.5 12.6458 118.875 12.5C118.25 12.3542 117.448 12.2812 116.469 12.2812H113.188V20.5V21.5C113.188 21.7917 113.208 22.0625 113.25 22.3125C113.312 22.5417 113.427 22.75 113.594 22.9375C113.781 23.1042 114.042 23.2396 114.375 23.3438C114.708 23.4271 115.146 23.4688 115.688 23.4688H119.188C120.167 23.4688 120.979 23.4062 121.625 23.2812C122.271 23.1562 122.781 22.9896 123.156 22.7812C123.552 22.5521 123.833 22.2917 124 22C124.188 21.6875 124.302 21.3542 124.344 21L124.406 20.5938L124.781 20.4688C124.698 21.0521 124.615 21.6458 124.531 22.25C124.448 22.8542 124.354 23.4375 124.25 24H119.094H113.156H110.219H107.719V23.9688C107.719 23.9479 107.719 23.9271 107.719 23.9062C107.74 23.8854 107.75 23.8542 107.75 23.8125L107.812 23.625H108.219C108.51 23.625 108.771 23.5833 109 23.5C109.25 23.4167 109.458 23.2604 109.625 23.0312C109.812 22.8021 109.958 22.4896 110.062 22.0938C110.167 21.6771 110.219 21.1458 110.219 20.5V4.0625C110.219 3.41667 110.167 2.89583 110.062 2.5C109.958 2.08333 109.812 1.76042 109.625 1.53125C109.458 1.30208 109.25 1.14583 109 1.0625C108.771 0.979167 108.51 0.9375 108.219 0.9375H107.812L107.75 0.75C107.75 0.708333 107.74 0.6875 107.719 0.6875C107.719 0.666667 107.719 0.645833 107.719 0.625V0.5625H110.219H113.156H118.312H123.469C123.51 1.14583 123.542 1.73958 123.562 2.34375C123.604 2.92708 123.646 3.51042 123.688 4.09375H123.75Z" fill="#FAFAFA"></path></svg>