<svg xmlns="http://www.w3.org/2000/svg" xmlns:xlink="http://www.w3.org/1999/xlink" id="Layer_1" x="0px" y="0px" viewBox="0 0 124.64 24.5" style="enable-background:new 0 0 124.64 24.5;" xml:space="preserve">
<g>
	<path d="M27.2,23.66l-0.06-0.19h-0.41c-0.29,0-0.55-0.04-0.78-0.12c-0.23-0.08-0.43-0.24-0.61-0.47c-0.18-0.23-0.32-0.55-0.42-0.95   c-0.1-0.41-0.17-0.93-0.19-1.58L24.29,6.9c0-1.23,0.03-2.24,0.09-3.03s0.16-1.41,0.3-1.86c0.14-0.45,0.29-0.76,0.47-0.94   c0.18-0.18,0.38-0.27,0.61-0.27h0.75c0.02-0.04,0.04-0.11,0.05-0.21c0.01-0.09,0.02-0.15,0.02-0.17V0.41h-2.47h-1.75h-1.03   L14.4,20.12v-0.03L6.74,0.41h-2.1H3.92H3.23H0.89v0.06c0,0.02,0,0.04,0.02,0.05c0.01,0.01,0.02,0.04,0.02,0.08   c0,0.05,0,0.08,0.02,0.09C0.95,0.7,0.95,0.71,0.95,0.74v0.07H1.7c0.35,0,0.71,0.1,1.06,0.3c0.35,0.2,0.72,0.59,1.09,1.17   L3.42,17.23c-0.04,1.29-0.12,2.33-0.25,3.14s-0.29,1.44-0.5,1.9c-0.21,0.47-0.45,0.79-0.72,0.95c-0.27,0.17-0.56,0.25-0.88,0.25   H0.36c-0.02,0.04-0.04,0.1-0.05,0.19c-0.01,0.08-0.02,0.14-0.02,0.16h2.94h1h2.94c0-0.02-0.01-0.07-0.03-0.16   c-0.02-0.08-0.03-0.15-0.03-0.19H6.39c-0.33,0-0.63-0.08-0.89-0.23c-0.26-0.16-0.48-0.45-0.67-0.88c-0.19-0.43-0.32-1.02-0.41-1.77   c-0.08-0.75-0.1-1.72-0.06-2.91H4.33L4.58,3.62l0.09,0.28c1.4,3.35,2.79,6.68,4.19,9.97c1.4,3.29,2.79,6.62,4.19,9.97h0.72   l7.59-20.81l0.44,17.31c0.02,0.65-0.02,1.17-0.11,1.58s-0.23,0.72-0.42,0.95c-0.19,0.23-0.41,0.39-0.66,0.47   c-0.25,0.08-0.53,0.12-0.84,0.12h-0.38c-0.02,0.04-0.05,0.11-0.08,0.2s-0.05,0.15-0.05,0.17h2.63h2.94h2.41   c-0.02,0-0.03-0.01-0.03-0.03V23.66z"></path>
	<path d="M49.4,3.47c-1.07-1.06-2.35-1.89-3.83-2.48c-1.48-0.59-3.11-0.89-4.88-0.89c-1.73,0-3.32,0.3-4.76,0.89   s-2.68,1.42-3.72,2.48s-1.86,2.33-2.44,3.81c-0.58,1.48-0.88,3.09-0.88,4.84s0.28,3.37,0.84,4.84c0.56,1.48,1.36,2.75,2.38,3.81   c1.02,1.06,2.23,1.89,3.63,2.48s2.94,0.89,4.63,0.89c1.81,0,3.48-0.3,5.01-0.89c1.52-0.59,2.83-1.42,3.93-2.48s1.95-2.33,2.57-3.81   c0.62-1.48,0.92-3.09,0.92-4.84s-0.3-3.36-0.89-4.84C51.31,5.8,50.47,4.53,49.4,3.47z M48.9,16.72c-0.45,1.4-1.07,2.59-1.88,3.59   c-0.8,1-1.76,1.78-2.88,2.34c-1.11,0.56-2.34,0.84-3.67,0.84c-1.23,0-2.35-0.28-3.38-0.84c-1.02-0.56-1.9-1.34-2.64-2.34   c-0.74-1-1.32-2.2-1.73-3.59c-0.42-1.4-0.62-2.93-0.62-4.59c0-1.67,0.21-3.2,0.62-4.59c0.42-1.4,1-2.59,1.75-3.59   s1.64-1.78,2.67-2.34s2.17-0.84,3.42-0.84c1.31,0,2.52,0.28,3.62,0.84c1.1,0.56,2.05,1.34,2.84,2.34c0.79,1,1.41,2.2,1.86,3.59   c0.45,1.4,0.67,2.93,0.67,4.59C49.58,13.79,49.35,15.32,48.9,16.72z"></path>
	<path d="M76.56,3.47c-1.07-1.06-2.35-1.89-3.83-2.48s-3.11-0.89-4.88-0.89c-1.73,0-3.32,0.3-4.76,0.89   c-1.44,0.59-2.68,1.42-3.72,2.48S57.5,5.8,56.92,7.28c-0.58,1.48-0.88,3.09-0.88,4.84s0.28,3.37,0.84,4.84   c0.56,1.48,1.36,2.75,2.38,3.81c1.02,1.06,2.23,1.89,3.63,2.48c1.4,0.59,2.94,0.89,4.63,0.89c1.81,0,3.48-0.3,5.01-0.89   c1.52-0.59,2.83-1.42,3.93-2.48c1.09-1.06,1.95-2.33,2.57-3.81c0.62-1.48,0.92-3.09,0.92-4.84s-0.3-3.36-0.89-4.84   C78.46,5.8,77.63,4.53,76.56,3.47z M76.06,16.72c-0.45,1.4-1.07,2.59-1.88,3.59c-0.8,1-1.76,1.78-2.88,2.34   c-1.12,0.56-2.34,0.84-3.67,0.84c-1.23,0-2.35-0.28-3.38-0.84c-1.02-0.56-1.9-1.34-2.64-2.34c-0.74-1-1.32-2.2-1.73-3.59   c-0.42-1.4-0.62-2.93-0.62-4.59c0-1.67,0.21-3.2,0.62-4.59c0.42-1.4,1-2.59,1.75-3.59s1.64-1.78,2.67-2.34   c1.03-0.56,2.17-0.84,3.42-0.84c1.31,0,2.52,0.28,3.62,0.84c1.1,0.56,2.05,1.34,2.84,2.34c0.79,1,1.41,2.2,1.86,3.59   c0.45,1.4,0.67,2.93,0.67,4.59C76.73,13.79,76.51,15.32,76.06,16.72z"></path>
	<path d="M102.95,23.22c-0.27-0.12-0.51-0.32-0.72-0.58c-0.21-0.26-0.46-0.61-0.75-1.05c-0.73-1.1-1.41-2.14-2.03-3.11   s-1.2-1.84-1.72-2.62c-0.52-0.78-0.97-1.46-1.36-2.05c-0.39-0.58-0.68-1.04-0.89-1.38c1.6-0.31,2.88-0.92,3.83-1.81   c0.95-0.9,1.42-2.09,1.42-3.59c0-0.96-0.2-1.84-0.59-2.66c-0.4-0.81-0.95-1.52-1.67-2.11s-1.57-1.05-2.55-1.38   c-0.98-0.32-2.06-0.48-3.25-0.48h-4.09h-5.44v0.06c0,0.02,0,0.04,0.02,0.05c0.01,0.01,0.02,0.04,0.02,0.08l0.06,0.19h0.41   c0.29,0,0.56,0.04,0.8,0.12c0.24,0.08,0.45,0.24,0.62,0.47c0.18,0.23,0.32,0.55,0.42,0.95c0.1,0.41,0.16,0.93,0.16,1.58v16.44   c0,0.65-0.05,1.17-0.16,1.58c-0.1,0.41-0.25,0.72-0.42,0.95c-0.18,0.23-0.39,0.39-0.62,0.47c-0.24,0.08-0.51,0.12-0.8,0.12h-0.41   l-0.06,0.19c0,0.04-0.01,0.07-0.02,0.09c-0.01,0.02-0.02,0.04-0.02,0.06v0.03h7.94c-0.02,0-0.03-0.01-0.03-0.03v-0.16l-0.06-0.19   h-0.41c-0.29,0-0.56-0.04-0.8-0.12c-0.24-0.08-0.45-0.24-0.62-0.47c-0.18-0.23-0.32-0.55-0.42-0.95c-0.1-0.41-0.16-0.93-0.16-1.58   v-7.66h3.94c0.15,0.29,0.38,0.71,0.72,1.27c0.33,0.55,0.74,1.21,1.23,1.98c0.49,0.77,1.04,1.64,1.64,2.59   c0.6,0.96,1.26,1.98,1.97,3.06c0.33,0.52,0.65,0.93,0.95,1.23c0.3,0.3,0.7,0.53,1.19,0.67c0.49,0.15,1.14,0.24,1.95,0.28   c0.81,0.04,1.92,0.06,3.31,0.06V23.5c-0.65,0-1.16-0.02-1.55-0.05C103.55,23.42,103.22,23.34,102.95,23.22z M92.67,11.97h-4.09   V3.91V1h3.22c0.83,0,1.6,0.14,2.3,0.41c0.7,0.27,1.3,0.65,1.81,1.12c0.51,0.48,0.91,1.05,1.19,1.72c0.28,0.67,0.42,1.4,0.42,2.19   c0,0.94-0.12,1.75-0.36,2.44c-0.24,0.69-0.57,1.26-1,1.72c-0.43,0.46-0.94,0.8-1.53,1.03C94.03,11.85,93.38,11.97,92.67,11.97z"></path>
	<path d="M124.04,20.44l-0.06,0.41c-0.04,0.35-0.15,0.68-0.33,0.98c-0.18,0.3-0.46,0.56-0.84,0.78c-0.39,0.22-0.9,0.39-1.55,0.52   c-0.65,0.12-1.46,0.19-2.44,0.19h-3.5c-0.54,0-0.98-0.05-1.31-0.14c-0.33-0.09-0.59-0.23-0.77-0.41c-0.18-0.18-0.29-0.38-0.34-0.62   c-0.05-0.24-0.08-0.5-0.08-0.8v-1v-8.22h3.28c0.98,0,1.78,0.07,2.41,0.22c0.62,0.15,1.11,0.34,1.47,0.59   c0.35,0.25,0.6,0.55,0.73,0.89c0.13,0.34,0.2,0.71,0.2,1.11v0.41l0.34,0.16v-3.38v-0.59V8.16l-0.34,0.16v0.41   c0,0.42-0.07,0.8-0.2,1.14c-0.14,0.34-0.38,0.64-0.73,0.89c-0.35,0.25-0.84,0.44-1.47,0.58c-0.62,0.14-1.43,0.2-2.41,0.2h-3.28   V3.91V0.94h5.19c1.19,0,2.11,0.06,2.77,0.19s1.15,0.3,1.47,0.53c0.32,0.23,0.52,0.51,0.59,0.83c0.07,0.32,0.13,0.67,0.17,1.05v0.28   c0.04,0.02,0.11,0.05,0.2,0.08c0.06,0.02,0.08,0.02,0.11,0.03c-0.04-0.58-0.08-1.16-0.11-1.75c-0.03-0.59-0.07-1.18-0.11-1.77   h-5.16h-5.16h-2.94h-2.5v0.06c0,0.02,0,0.04,0.02,0.05c0.01,0.01,0.02,0.04,0.02,0.08l0.06,0.19h0.41c0.29,0,0.56,0.04,0.8,0.12   c0.24,0.08,0.45,0.24,0.62,0.47c0.18,0.23,0.32,0.55,0.42,0.95c0.1,0.41,0.16,0.93,0.16,1.58v16.44c0,0.65-0.05,1.17-0.16,1.58   c-0.1,0.41-0.25,0.72-0.42,0.95c-0.18,0.23-0.39,0.39-0.62,0.47c-0.24,0.08-0.51,0.12-0.8,0.12h-0.41l-0.06,0.19   c0,0.04-0.01,0.07-0.02,0.09c-0.01,0.02-0.02,0.04-0.02,0.06v0.03h2.5h2.94h5.94h5.16c0.1-0.56,0.2-1.15,0.28-1.75   c0.08-0.6,0.17-1.2,0.25-1.78L124.04,20.44z"></path>
	<path d="M123.39,3.94c-0.01,0-0.05-0.01-0.06-0.02c0,0.01,0,0.01,0,0.02H123.39z"></path>
</g>
</svg>